<svg xmlns="http://www.w3.org/2000/svg" viewBox="0 0 512 512">
  <rect x="40" y="80" width="360" height="340" rx="30" fill="#e8eaf0"/>
  <path d="M40,80 L40,150 Q40,170 60,170 L380,170 Q400,170 400,150 L400,80 Q400,60 380,60 L70,60 Q40,60 40,80Z" fill="#ff4757"/>
  <rect x="40" y="130" width="360" height="40" fill="#e84351"/>
  <rect x="130" y="40" width="18" height="55" rx="9" fill="#dde1e8"/>
  <rect x="290" y="40" width="18" height="55" rx="9" fill="#dde1e8"/>
  <rect x="80" y="200" width="30" height="30" rx="6" fill="#2d3561"/>
  <rect x="135" y="200" width="30" height="30" rx="6" fill="#2d3561"/>
  <rect x="190" y="200" width="30" height="30" rx="6" fill="#2d3561"/>
  <rect x="245" y="200" width="30" height="30" rx="6" fill="#2d3561"/>
  <rect x="300" y="200" width="30" height="30" rx="6" fill="#2d3561"/>
  <rect x="80" y="255" width="30" height="30" rx="6" fill="#2d3561"/>
  <rect x="135" y="255" width="30" height="30" rx="6" fill="#2d3561"/>
  <rect x="190" y="255" width="30" height="30" rx="6" fill="#2d3561"/>
  <rect x="245" y="255" width="30" height="30" rx="6" fill="#2d3561"/>
  <rect x="300" y="255" width="30" height="30" rx="6" fill="#2d3561"/>
  <rect x="80" y="310" width="30" height="30" rx="6" fill="#2d3561"/>
  <rect x="135" y="310" width="30" height="30" rx="6" fill="#2d3561"/>
  <rect x="190" y="310" width="30" height="30" rx="6" fill="#2d3561"/>
  <rect x="245" y="310" width="30" height="30" rx="6" fill="#2d3561"/>
  <rect x="80" y="365" width="30" height="30" rx="6" fill="#2d3561"/>
  <rect x="135" y="365" width="30" height="30" rx="6" fill="#2d3561"/>
  <circle cx="370" cy="380" r="120" fill="#4da6ff" stroke="#2b88e6" stroke-width="12"/>
  <circle cx="370" cy="380" r="100" fill="white"/>
  <line x1="370" y1="380" x2="370" y2="310" stroke="#2d3561" stroke-width="10" stroke-linecap="round"/>
  <line x1="370" y1="380" x2="420" y2="380" stroke="#2d3561" stroke-width="8" stroke-linecap="round"/>
  <circle cx="370" cy="380" r="10" fill="#ffc107"/>
</svg>
